<svg width="52" height="52" viewBox="0 0 52 52" fill="none" xmlns="http://www.w3.org/2000/svg">
<rect width="52" height="52" rx="26" fill="white"/>
<path d="M34.4425 23.6921C34.4622 23.823 34.8011 28.2878 34.4622 30.4826C34.1233 32.6773 33.207 36.0555 33.207 36.0555C33.7016 37.0416 34.4665 37.8666 35.4123 38.4342C36.3581 39.0019 37.4459 39.2889 38.5487 39.2616C42.4774 39.2329 45.0326 37.5868 44.5341 34.9886C44.5341 34.9886 43.7971 32.1717 42.255 31.9924C42.255 31.9924 43.2699 31.813 44.1521 30.3104C45.0343 28.8078 45.7659 27.9668 43.8617 25.8689C41.9574 23.771 40.8134 22.4208 40.8582 21.2266C40.8582 21.2266 38.8966 23.8696 36.5548 24.0579C34.213 24.2461 34.4425 23.6921 34.4425 23.6921Z" fill="#231F20"/>
<path d="M18.2477 31.1437C18.2477 31.1437 20.7419 36.003 21.4609 36.783C21.4609 36.783 20.4066 40.4104 17.8209 41.8144C15.2353 43.2184 8.33898 46.7006 5.26918 40.2006C5.26918 40.2006 4.03911 37.3639 7.40836 34.8357C7.40836 34.8357 3.98532 33.0892 4.88367 29.5657C5.78201 26.0423 8.87691 24.0663 11.9341 22.3252C11.9341 22.3252 12.4936 16.087 14.0393 14.6148C14.0393 14.6148 15.4253 10.3114 22.5296 11.0627C23.7147 11.2298 24.8312 11.7192 25.7572 12.4775C25.7572 12.4775 26.4726 8.50932 29.7522 8.27801C33.0318 8.0467 33.9696 8.7765 34.8321 11.762C34.8321 11.762 37.6204 9.85595 39.3722 11.0304C41.1241 12.2049 42.8724 14.0787 42.3147 17.7205C41.757 21.3623 38.6657 23.9856 36.5606 24.0591C34.4555 24.1326 32.2177 23.4477 31.7605 20.4102C31.7605 20.4102 31.834 21.278 30.7564 21.5039C29.4474 21.7783 28.3464 21.8321 27.7565 18.6601C27.7565 18.6601 23.9426 16.8257 21.1704 20.3205C21.1704 20.3205 19.7252 21.9468 19.3504 24.6706C18.9757 27.3943 18.7462 27.8982 18.0092 27.7852C17.7781 27.699 17.5681 27.5645 17.3931 27.3907C17.2181 27.217 17.0822 27.0079 16.9943 26.7775C16.6357 25.9508 15.3177 25.1153 14.4839 26.0244C13.6501 26.9335 13.5444 27.5862 14.2562 29.1946C14.9681 30.803 16.0959 31.0827 17.4246 31.0576L18.2477 31.1437Z" fill="#231F20"/>
<path d="M32.7263 36.929C32.2583 37.7526 31.6231 38.4691 30.8615 39.0323C30.0901 39.5877 29.1943 39.9454 28.2525 40.0741C27.5752 40.1709 26.8875 40.1709 26.2102 40.0741C26.0631 40.0454 25.9125 40.0275 25.7673 39.988L25.3315 39.8715C25.0452 39.7797 24.765 39.6701 24.4924 39.5433C23.9523 39.2909 23.4423 38.9788 22.9718 38.6127C22.0568 37.8741 21.2557 37.0046 20.5942 36.0324C20.0028 35.1879 19.4725 34.3023 19.0073 33.3822C18.7078 32.7977 18.4245 32.2042 18.1699 31.5999C18.0408 31.2969 17.9332 30.9867 17.8256 30.6782C17.718 30.3698 17.6463 30.0489 17.5548 29.7333C17.4544 29.3388 17.5333 29.3747 17.7503 29.6526C17.8597 29.796 18.0067 30.0004 18.1788 30.2497C18.3615 30.5372 18.5245 30.8367 18.6666 31.1462C19.17 32.3536 19.7547 33.5254 20.4166 34.6535C21.0625 35.7826 21.8614 36.8168 22.7907 37.7269C23.3565 38.2732 24.0122 38.7178 24.7291 39.0413C25.4488 39.3641 26.2235 39.5467 27.0117 39.5792C27.8757 39.6181 28.7379 39.4682 29.5382 39.1399C30.3363 38.7998 31.0379 38.2676 31.5805 37.5907C31.9232 37.1713 32.2235 36.719 32.477 36.2404C32.7256 35.7553 32.9395 35.2532 33.1172 34.7378C33.6353 33.155 33.9698 31.518 34.1142 29.8588C34.2415 28.5731 34.2666 27.3072 34.2935 26.0287C34.2935 25.7472 34.2935 25.4711 34.306 25.1878C34.3311 24.1334 34.3975 23.7963 34.5642 23.574C34.597 23.523 34.6342 23.475 34.6754 23.4305C34.7937 23.3373 34.8762 23.7694 34.8816 24.5404C34.8995 26.8267 34.8422 29.2653 34.4513 31.6949C34.3098 32.6044 34.1061 33.503 33.8416 34.3846C33.5752 35.2734 33.2082 36.1288 32.7478 36.9344L32.7263 36.929Z" fill="#231F20"/>
<path d="M19.7841 23.5636C19.6048 24.2432 19.4846 24.9443 19.3681 25.6562C19.3071 26.0148 19.2497 26.3734 19.1672 26.732C19.1267 26.9219 19.0734 27.1088 19.0077 27.2915C18.9357 27.5102 18.8128 27.7087 18.649 27.8706C18.5719 27.9416 18.4815 27.9965 18.383 28.0322C18.2845 28.0679 18.1799 28.0837 18.0752 28.0786C17.9858 28.0736 17.8974 28.0579 17.8117 28.032C17.7276 28.0072 17.6465 27.9736 17.5696 27.9316C17.4223 27.8456 17.2931 27.7317 17.1894 27.5963C17.104 27.482 17.0261 27.3622 16.9563 27.2377C16.8972 27.1391 16.8416 27.0476 16.777 26.9669C16.7125 26.8862 16.6426 26.8055 16.5762 26.7231C16.5099 26.6406 16.4274 26.5778 16.3521 26.5043C16.2768 26.4308 16.1871 26.3824 16.101 26.325C15.7606 26.1095 15.3513 26.0307 14.9552 26.1044C14.7658 26.1351 14.5868 26.212 14.4342 26.3284C14.2816 26.4447 14.16 26.5969 14.0802 26.7715C14.0452 26.8618 14.0229 26.9565 14.0139 27.053C14.0006 27.1582 13.9946 27.2643 13.9959 27.3704C13.9983 27.589 14.0211 27.8069 14.0641 28.0213C14.2034 28.7938 14.5943 29.4986 15.1758 30.0259C15.3583 30.1858 15.5594 30.323 15.7747 30.4348C15.9912 30.5425 16.2183 30.6273 16.4525 30.6876C16.9396 30.7862 17.4348 30.8397 17.9318 30.8472C18.2492 30.8472 18.233 30.9386 17.9694 31.1018C17.8916 31.1521 17.8107 31.1976 17.7274 31.2381C17.6214 31.2945 17.5088 31.3373 17.3921 31.3654C17.255 31.4071 17.1136 31.433 16.9707 31.4425C16.8926 31.4496 16.8139 31.4496 16.7358 31.4425C16.6533 31.439 16.5712 31.4294 16.4901 31.4138C15.8867 31.3079 15.3209 31.0479 14.8477 30.6589C14.3916 30.2668 14.0305 29.7764 13.7915 29.2244C13.5524 28.6844 13.422 28.1025 13.4078 27.512C13.405 27.3604 13.4127 27.2088 13.4311 27.0584C13.4487 26.8928 13.4892 26.7305 13.5512 26.576C13.6868 26.2631 13.9203 26.0026 14.2165 25.8337C14.5494 25.6385 14.932 25.5444 15.3174 25.5629C15.6946 25.5813 16.061 25.6948 16.3826 25.8928C16.6886 26.091 16.9605 26.3375 17.1877 26.6226C17.419 26.9167 17.5463 27.2377 17.7256 27.3937C17.7726 27.4374 17.8266 27.4732 17.8852 27.4995C17.9422 27.5248 18.0026 27.5418 18.0645 27.5497C18.1128 27.558 18.1624 27.5515 18.2069 27.531C18.2514 27.5105 18.2887 27.477 18.3137 27.4349C18.4005 27.3092 18.4653 27.1698 18.5056 27.0225C18.5573 26.857 18.5998 26.6888 18.6329 26.5186C18.771 25.8229 18.8606 25.0842 19.0005 24.3669C19.156 23.4681 19.4166 22.5906 19.7769 21.7526C20.0607 21.1126 20.4471 20.5232 20.9209 20.0079C21.4048 19.4939 21.98 19.0744 22.6172 18.7706C23.0977 18.5388 23.6014 18.3585 24.1198 18.2327C24.646 18.0951 25.1927 18.0538 25.7336 18.1108C25.9702 18.1304 26.2051 18.167 26.4365 18.2202C26.7472 18.2839 27.0457 18.3971 27.3205 18.5555C27.4551 18.6256 27.562 18.7394 27.6235 18.8782C27.6471 18.9256 27.6652 18.9755 27.6773 19.0271C27.6773 19.1723 27.3581 19.0504 26.7951 18.88C26.3714 18.7561 25.9343 18.6838 25.4933 18.6648C25.2732 18.6537 25.0526 18.6597 24.8335 18.6828C24.7257 18.6927 24.6186 18.7082 24.5125 18.7294C24.4085 18.7491 24.2919 18.7796 24.1808 18.8047C23.2905 19.01 22.462 19.4242 21.7637 20.0133C21.2542 20.4625 20.8333 21.0032 20.5228 21.6073C20.2084 22.2305 19.9677 22.8883 19.8056 23.5672L19.7841 23.5636Z" fill="#231F20"/>
<path d="M30.1335 22.0761C30.0188 22.091 29.9032 22.0988 29.7875 22.0994C29.6733 22.0944 29.5596 22.0831 29.4468 22.0653C29.3349 22.0467 29.2246 22.0198 29.1168 21.9847C29.063 21.9649 29.0075 21.9488 28.9555 21.9273L28.8012 21.8538C28.7269 21.8187 28.655 21.7785 28.5861 21.7336C28.5139 21.6949 28.4466 21.648 28.3852 21.5938C28.1727 21.4128 27.991 21.1984 27.8473 20.959C27.7005 20.7301 27.5802 20.4853 27.4887 20.2292C27.4073 20.0061 27.3431 19.7771 27.2968 19.5442C27.2216 19.2473 27.2142 18.9371 27.2753 18.6369C27.2968 18.5437 27.3811 18.5706 27.4654 18.6531C27.5115 18.6995 27.5502 18.7527 27.5801 18.8109C27.6201 18.8731 27.6453 18.9436 27.6537 19.0171C27.6909 19.2861 27.754 19.5509 27.8419 19.8078C27.919 20.07 28.0173 20.3255 28.136 20.5717C28.2931 20.8629 28.5213 21.1097 28.7995 21.2889C28.872 21.3397 28.9488 21.3841 29.029 21.4216C29.1074 21.462 29.1897 21.4945 29.2746 21.5184C29.3611 21.5438 29.4492 21.5636 29.5382 21.5776C29.628 21.5889 29.7184 21.5949 29.809 21.5955C30.0331 21.5944 30.2546 21.5474 30.4599 21.4575C30.7813 21.3152 31.0627 21.096 31.2793 20.8191C31.4425 20.5992 31.5747 20.3579 31.672 20.1019C31.6953 20.0481 31.7168 19.9925 31.7437 19.9369C31.7756 19.8622 31.8212 19.794 31.8782 19.7361C31.9262 19.702 31.9843 19.6849 32.0432 19.6877C32.0706 19.685 32.0982 19.685 32.1257 19.6877C32.1687 19.6877 32.1974 19.7218 32.2171 19.7773C32.2413 19.8496 32.245 19.9272 32.2279 20.0015C32.1727 20.2762 32.0695 20.539 31.923 20.7779C31.7711 21.0325 31.584 21.2643 31.3672 21.4664C31.1977 21.6227 31.0084 21.7559 30.8041 21.8627C30.5939 21.9703 30.3683 22.0447 30.1353 22.0833L30.1335 22.0761Z" fill="#231F20"/>
<path d="M42.6625 15.7095C42.7682 17.8228 42.103 19.9025 40.7905 21.5622C40.167 22.3239 39.4031 22.9588 38.5402 23.4324C38.1079 23.6637 37.6531 23.85 37.1828 23.9883C36.7123 24.132 36.2254 24.2152 35.7339 24.2357C35.2927 24.2505 34.8518 24.1973 34.4268 24.0779C34.0023 23.9534 33.6034 23.7542 33.2487 23.4898C32.7933 23.1589 32.4145 22.7338 32.1382 22.2433C31.8619 21.7529 31.6945 21.2087 31.6475 20.6477C31.6475 20.4684 31.6869 20.3823 31.712 20.3949C31.7371 20.4074 31.7622 20.4953 31.8178 20.6244C31.8929 20.8018 31.9791 20.9743 32.076 21.1408L32.4884 21.8186C32.5548 21.9298 32.6265 22.0338 32.7 22.1378C32.7735 22.2418 32.8453 22.3458 32.9242 22.4426C33.0816 22.639 33.2582 22.8191 33.4513 22.9805C33.833 23.2984 34.2837 23.5225 34.7675 23.635C35.0114 23.6892 35.26 23.7193 35.5098 23.7247C35.765 23.7254 36.0198 23.7056 36.2719 23.6655C36.7901 23.58 37.2964 23.4331 37.7799 23.228C38.374 22.9752 38.9228 22.627 39.4044 22.197C39.8973 21.7655 40.3314 21.2711 40.6955 20.7266C41.5141 19.534 41.9904 18.1399 42.0726 16.6957C42.1234 15.8096 41.9953 14.9223 41.696 14.0867C41.4673 13.4558 41.1292 12.8701 40.6973 12.3564C40.2729 11.8429 39.7442 11.4254 39.1462 11.1317C38.6888 10.933 38.1886 10.8528 37.692 10.8986C37.1932 10.9482 36.7054 11.0765 36.2468 11.2787C36.1446 11.32 36.0459 11.3702 35.9491 11.4204C35.8523 11.4706 35.7555 11.5226 35.6586 11.5782C35.2982 11.7772 35.0795 11.9207 34.9002 12.0103C34.773 12.0794 34.6335 12.1227 34.4895 12.1376C34.4391 12.1457 34.3882 12.1511 34.3371 12.1538C34.2726 12.1538 34.2923 12.0713 34.3784 11.9225C34.4329 11.8298 34.4972 11.7432 34.5702 11.6643C34.6706 11.5538 34.7811 11.453 34.9002 11.363C35.2969 11.0473 35.7387 10.7928 36.2109 10.6081C36.7018 10.409 37.2222 10.292 37.7512 10.2621C38.3104 10.229 38.8695 10.3285 39.3829 10.5525C39.8775 10.7849 40.3306 11.0968 40.7242 11.476C41.3024 12.0287 41.7682 12.6882 42.0959 13.4179C42.4166 14.1424 42.6118 14.9161 42.6733 15.7059L42.6625 15.7095Z" fill="#231F20"/>
<path d="M28.6924 8.09311C29.3886 7.80559 30.1404 7.67754 30.8926 7.71835C31.1641 7.72216 31.4348 7.75037 31.7012 7.80263C32.6481 7.98712 33.5073 8.47948 34.1452 9.20304C34.423 9.5235 34.6471 9.88682 34.8087 10.2789C34.8517 10.4062 34.8912 10.5371 34.9342 10.6662C34.9772 10.7953 34.988 10.9316 35.0113 11.0661C35.0346 11.2006 35.0292 11.3368 35.031 11.4713C35.0251 11.6055 35.0065 11.7387 34.9755 11.8694C34.9396 12.0344 34.841 11.9949 34.7334 11.8532C34.5907 11.6684 34.4987 11.4497 34.4662 11.2185C34.4031 10.7591 34.2456 10.3177 34.0036 9.92208C33.7464 9.52262 33.4124 9.17825 33.021 8.90897L32.8417 8.78704C32.7789 8.74939 32.7108 8.71711 32.6444 8.68304C32.5085 8.61448 32.3683 8.55459 32.2248 8.50373C31.9328 8.41017 31.6326 8.34413 31.3283 8.30649C30.6595 8.21733 29.9794 8.27049 29.3326 8.46249C28.933 8.5847 28.5523 8.7615 28.2011 8.98787C27.6598 9.32999 27.1873 9.77029 26.8079 10.2861C26.5276 10.6876 26.3009 11.124 26.1337 11.5843C26.0924 11.6829 26.0709 11.7869 26.0332 11.8873C25.9831 12.0212 25.9232 12.1513 25.8539 12.2764C25.8115 12.3467 25.7444 12.3985 25.6657 12.4217C25.632 12.4354 25.5972 12.4462 25.5617 12.4539C25.4523 12.4683 25.4164 12.2746 25.4666 11.9662C25.6639 11.1139 26.0568 10.3191 26.6142 9.64471C27.1715 8.97033 27.8781 8.43484 28.6781 8.08056L28.6924 8.09311Z" fill="#231F20"/>
<path d="M10.3342 22.8941L10.994 22.5194C11.1994 22.4117 11.3982 22.292 11.5893 22.1608C11.6465 22.1164 11.6926 22.0593 11.7238 21.994C11.7619 21.9074 11.7866 21.8155 11.7973 21.7214C11.8081 21.6677 11.8135 21.6103 11.8206 21.5529L11.8404 21.3736L11.8816 20.9988C11.991 19.9965 12.1075 18.9834 12.3066 17.9792C12.444 17.2396 12.6407 16.5123 12.8947 15.8042C13.132 15.1799 13.428 14.5795 13.7787 14.0111C14.1402 13.4446 14.5708 12.9254 15.0608 12.4654C15.5511 12.0068 16.1034 11.6193 16.7015 11.3143C16.9974 11.1527 17.3021 11.0079 17.6142 10.8803C17.7702 10.8248 17.9279 10.7746 18.0857 10.7226L18.3224 10.6472L18.5645 10.5863C19.1367 10.427 19.7277 10.3449 20.3217 10.3424C20.909 10.3357 21.4955 10.3843 22.0736 10.4877C22.8148 10.6137 23.54 10.8205 24.2361 11.1045C24.588 11.2496 24.9244 11.4298 25.2402 11.6424C25.4023 11.7499 25.5558 11.8698 25.6993 12.001C25.8502 12.131 25.9845 12.2792 26.0991 12.4421C26.2408 12.6555 26.239 12.7882 26.1942 12.8008C26.1493 12.8133 26.0435 12.7272 25.8822 12.6214C25.6653 12.4865 25.4395 12.3667 25.2062 12.2628C25.0627 12.1983 24.9067 12.1301 24.7399 12.062C24.6557 12.0261 24.5606 11.9903 24.4799 11.9562L24.2128 11.8361C23.5579 11.5392 22.8724 11.3149 22.1686 11.1672C21.4693 11.0241 20.7555 10.9639 20.042 10.9879C19.6915 11.0003 19.3431 11.0478 19.002 11.1296L18.4766 11.2551L17.9638 11.4183C17.2837 11.6526 16.6397 11.9809 16.0506 12.3937C15.3395 12.909 14.7374 13.5598 14.279 14.3088C13.813 15.0814 13.4512 15.9122 13.2031 16.7797C12.9292 17.742 12.7331 18.7248 12.6168 19.7186C12.5522 20.217 12.4966 20.7209 12.4375 21.2248L12.3962 21.6031C12.3815 21.7407 12.3581 21.8773 12.3263 22.0119C12.2897 22.1666 12.2213 22.3119 12.1255 22.4387C12.0287 22.5558 11.9129 22.6558 11.783 22.7346C11.4997 22.9139 11.2361 23.0537 10.9653 23.2133L10.162 23.6885C9.62409 24.0094 9.10947 24.3448 8.60919 24.7034C7.84294 25.2344 7.13916 25.8504 6.51126 26.5395C6.2036 26.8819 5.93368 27.2565 5.70616 27.6566C5.47975 28.0475 5.31466 28.4708 5.21664 28.9118C5.0661 29.6 5.03215 30.3085 5.11623 31.0079C5.17843 31.6956 5.38234 32.3629 5.71512 32.9678C5.86703 33.2196 6.04754 33.4531 6.25305 33.6635C6.53805 33.9422 6.84441 34.1982 7.16933 34.4292C7.32528 34.5396 7.46165 34.6754 7.57278 34.8308C7.61305 34.8812 7.64847 34.9352 7.67857 34.9922C7.70547 35.0675 7.60326 35.0693 7.38629 35.0083C7.05802 34.9051 6.74727 34.7528 6.46464 34.5565C5.87657 34.165 5.39675 33.6316 5.0696 33.0054C4.76203 32.3643 4.57541 31.672 4.51912 30.9631C4.4457 30.2493 4.48259 29.5284 4.6285 28.8257C4.70435 28.4654 4.81732 28.1138 4.9656 27.7768C5.00326 27.6907 5.04629 27.6064 5.08753 27.5221L5.22202 27.2854C5.31138 27.1265 5.40956 26.9726 5.51609 26.8246C6.13898 25.9673 6.88872 25.2097 7.73953 24.5779C8.56473 23.9555 9.42767 23.3848 10.3234 22.869L10.3342 22.8941Z" fill="#231F20"/>
<path d="M12.8218 44.2409C12.0627 44.3523 11.2939 44.3824 10.5284 44.3305C9.75472 44.2865 8.99197 44.1269 8.2655 43.8571C7.72628 43.6627 7.22057 43.3857 6.76647 43.0359C6.36932 42.7186 6.02496 42.3403 5.74619 41.9152C5.60712 41.7049 5.48193 41.4856 5.37144 41.2589C5.26767 41.0317 5.17843 40.7982 5.10426 40.5596C5.0306 40.3242 4.97073 40.0848 4.92495 39.8424C4.90062 39.7203 4.88267 39.597 4.87116 39.473C4.85681 39.3493 4.8353 39.2274 4.82812 39.1018V38.7289C4.82812 38.6661 4.82812 38.6034 4.82812 38.5496L4.84606 38.3702C4.85861 38.2447 4.86578 38.121 4.8855 37.9973L4.96261 37.6297C5.17499 36.7632 5.61658 35.9698 6.24109 35.3327C7.03185 34.542 8.03419 33.9072 9.14592 33.7548C9.48481 33.6849 9.45971 33.8014 9.22302 33.9987C9.16564 34.0471 9.09392 34.1045 9.01323 34.1672L8.73709 34.3698C8.5267 34.5369 8.30369 34.6873 8.07006 34.8199C7.16513 35.2783 6.41636 35.9946 5.91833 36.8784C5.68185 37.321 5.52983 37.8038 5.47006 38.3021L5.44854 38.4904L5.43599 38.5854V38.6733V39.057C5.43599 39.1861 5.4593 39.3152 5.47006 39.4443L5.48799 39.6398L5.52385 39.8334C5.63017 40.4631 5.86982 41.0629 6.22674 41.5925C6.59047 42.1223 7.06762 42.5646 7.62357 42.8871L7.8513 43.0198L8.09157 43.1345C8.24757 43.217 8.41971 43.2708 8.58288 43.3389C8.92165 43.4576 9.26945 43.5488 9.62288 43.6115C10.3385 43.7401 11.0673 43.7792 11.7925 43.728C12.6934 43.6724 13.5849 43.5141 14.4499 43.2565C15.1065 43.0625 15.7454 42.813 16.3596 42.5105C16.9685 42.2014 17.5467 41.8352 18.0863 41.4167C18.9165 40.7876 19.6457 40.0354 20.2488 39.1861C20.317 39.0947 20.3779 39.0068 20.4281 38.9046C20.4783 38.8024 20.5483 38.7253 20.6074 38.6177C21.0234 37.8897 21.1454 37.6584 21.3803 37.5418C21.4287 37.5149 21.4789 37.4719 21.513 37.4576C21.547 37.4432 21.5865 37.5096 21.5918 37.6871C21.5977 37.7958 21.5831 37.9047 21.5488 38.008C21.512 38.1514 21.464 38.2917 21.4054 38.4276C20.9778 39.3472 20.3818 40.1786 19.6481 40.8788C19.2817 41.2382 18.893 41.5742 18.4844 41.8847C18.0732 42.1991 17.6445 42.49 17.2005 42.7562C15.8497 43.5195 14.3684 44.0242 12.8325 44.2445L12.8218 44.2409Z" fill="#231F20"/>
<path d="M44.5434 29.0934C44.6509 28.7711 44.6928 28.4305 44.6666 28.0918C44.6404 27.753 44.5467 27.4229 44.391 27.121C44.3331 27.0063 44.2678 26.8955 44.1955 26.7893C44.1149 26.687 44.0431 26.583 43.9589 26.4773C43.3779 25.7259 42.5943 25.0625 41.9972 24.209C41.8627 24.0189 41.7444 23.8199 41.6278 23.6352C41.5113 23.4505 41.3911 23.2586 41.28 23.0686C40.9676 22.5922 40.701 22.0872 40.4838 21.5606C40.4229 21.3813 40.5071 21.3813 40.6631 21.4619C40.8934 21.5922 41.0938 21.7694 41.2513 21.9819L41.7354 22.6992C41.8161 22.8175 41.8986 22.9341 41.9775 23.0578L42.2016 23.4254C42.2769 23.5527 42.3469 23.6639 42.4204 23.775C42.4939 23.8862 42.5728 23.9956 42.6553 24.1032C42.822 24.3201 43.0031 24.5335 43.1932 24.7487C43.6415 25.2669 44.2189 25.7295 44.6636 26.3499C44.9103 26.6955 45.0964 27.0806 45.214 27.4886C45.3293 27.9007 45.3604 28.3319 45.3055 28.7563C45.2312 29.2698 45.0425 29.7601 44.7532 30.1908C44.3208 30.8269 43.7349 31.3437 43.0498 31.6934C42.5345 31.979 41.9741 32.1743 41.3929 32.2708C41.2646 32.2947 41.1344 32.3079 41.0038 32.3102C40.8285 32.3181 40.6532 32.2926 40.4874 32.2349C40.4402 32.2152 40.3974 32.1861 40.3616 32.1494C40.3259 32.1128 40.2979 32.0693 40.2794 32.0215C40.2606 31.9834 40.245 31.9439 40.2328 31.9032C40.2131 31.7795 40.4121 31.7024 40.7223 31.6665C41.1833 31.6192 41.6374 31.52 42.0761 31.3706C42.5182 31.2153 42.9337 30.9927 43.308 30.7108C43.869 30.3105 44.2929 29.747 44.5219 29.097L44.5434 29.0934Z" fill="#231F20"/>
<path d="M40.1 39.0146C40.5664 38.9808 41.0277 38.8954 41.4753 38.76C41.9185 38.6316 42.3411 38.4408 42.7305 38.1933C42.8718 38.1042 43.005 38.0028 43.1286 37.8903L43.3079 37.7253C43.3688 37.6697 43.4208 37.6052 43.4872 37.546C43.8947 37.1318 44.1727 36.6078 44.2869 36.038C44.3818 35.4526 44.32 34.8525 44.1076 34.2987C43.9144 33.7964 43.6216 33.3384 43.2469 32.9521C43.0125 32.7068 42.7458 32.4945 42.4544 32.3209C42.3142 32.2349 42.1666 32.1616 42.0132 32.1022C41.8632 32.0485 41.7073 32.013 41.5488 31.9964C41.3695 31.9964 41.3372 31.9229 41.5255 31.7884C41.5828 31.7542 41.6427 31.7248 41.7048 31.7005C41.7885 31.6742 41.8754 31.6591 41.963 31.6557C42.1793 31.646 42.3949 31.6872 42.5924 31.7758C42.7798 31.8573 42.9567 31.9608 43.1196 32.0842C43.2804 32.203 43.4332 32.3324 43.5768 32.4715C43.8605 32.7492 44.1076 33.0619 44.312 33.4022C44.5192 33.7435 44.6791 34.1115 44.7872 34.496C44.8934 34.8876 44.9322 35.2945 44.9019 35.6991C44.8698 36.1895 44.7408 36.6686 44.5223 37.1087C44.3037 37.5489 44.0001 37.9413 43.6288 38.2633C43.2355 38.6134 42.7872 38.8963 42.3019 39.1006C41.8278 39.3065 41.3305 39.454 40.8208 39.54C40.2012 39.6475 39.5714 39.6848 38.9435 39.6511C38.4702 39.6291 37.9995 39.5691 37.5359 39.4718C37.0729 39.3781 36.6179 39.2486 36.1749 39.0845C35.4769 38.848 34.8267 38.4892 34.2545 38.0248C34.1285 37.9208 34.0088 37.8094 33.8959 37.6913C33.7422 37.5364 33.6145 37.3578 33.5175 37.1623C33.4668 37.0616 33.4578 36.945 33.4924 36.8377C33.5021 36.7948 33.5172 36.7532 33.5372 36.714C33.6143 36.6046 33.8062 36.7606 34.0859 37.0475C34.2971 37.2603 34.5249 37.4558 34.7673 37.6321C35.0086 37.8154 35.2633 37.9802 35.5294 38.1252C36.0816 38.4163 36.6684 38.6362 37.2759 38.7797C37.7352 38.8928 38.2029 38.9684 38.6745 39.0056C38.9112 39.0325 39.1479 39.0271 39.3917 39.0361C39.6356 39.0451 39.8669 39.0271 40.1 38.9966V39.0146Z" fill="#231F20"/>
<path d="M30.3418 38.752C30.0262 40.0071 30.2289 41.126 28.6169 41.5008C25.2512 42.2844 23.9548 39.6395 23.7109 38.9133C23.7109 38.9133 25.9702 40.2779 28.4842 39.835C30.9981 39.3921 30.3418 38.752 30.3418 38.752Z" fill="#231F20"/>
<path d="M23.9242 29.7898C23.9964 29.858 24.0757 29.9181 24.1609 29.9692C24.2368 30.0091 24.3176 30.0393 24.4011 30.0588C24.5722 30.085 24.7467 30.0445 24.8889 29.9458C24.9966 29.8582 25.0831 29.7472 25.1417 29.6213C25.2675 29.3601 25.3476 29.0793 25.3784 28.7911C25.4157 28.4853 25.4331 28.1775 25.4304 27.8694C25.4304 27.5915 25.4053 27.3118 25.3784 27.0356C25.317 26.6805 25.3007 26.319 25.33 25.9598C25.3497 25.8432 25.4196 25.8665 25.5093 25.9598C25.5573 26.0158 25.6004 26.0758 25.6384 26.1391C25.687 26.2201 25.7176 26.3106 25.728 26.4045C25.8213 27.1217 25.9307 27.8623 25.85 28.6279C25.8231 28.8556 25.7998 29.0905 25.7514 29.3308C25.7081 29.5845 25.6175 29.8279 25.4842 30.048C25.4005 30.1746 25.2956 30.2856 25.174 30.3762C24.9878 30.5074 24.7679 30.5825 24.5404 30.5926C24.3129 30.6028 24.0872 30.5476 23.8901 30.4336C23.6085 30.2589 23.3646 30.0296 23.1729 29.7594C22.8958 29.3754 22.6516 28.9687 22.4431 28.5436C22.2763 28.2245 22.097 27.9178 21.941 27.5969C21.9069 27.5269 21.8693 27.4606 21.8388 27.3889C21.7222 27.1217 21.7205 27.0303 21.8191 26.9155C21.8388 26.889 21.861 26.8643 21.8854 26.842C21.9679 26.7738 22.097 26.842 22.21 27.0338C22.5489 27.5718 22.8178 28.1671 23.1352 28.7212C23.3452 29.1214 23.6189 29.4848 23.9457 29.797L23.9242 29.7898Z" fill="#231F20"/>
<path d="M30.8911 28.8709L30.7961 29.0502C30.7784 29.0837 30.7587 29.1161 30.7369 29.147C30.7144 29.1818 30.6892 29.2148 30.6616 29.2457C30.5537 29.3773 30.4134 29.4787 30.2545 29.5397C30.1012 29.5996 29.9362 29.6236 29.7722 29.6097C29.6193 29.593 29.4705 29.5493 29.3329 29.4806C29.1393 29.3864 28.9708 29.2475 28.8416 29.0753C28.4999 28.5469 28.2275 27.9768 28.0311 27.379C27.9396 27.119 27.8518 26.8572 27.7818 26.5955C27.6756 26.2609 27.6153 25.9134 27.6025 25.5626C27.6025 25.4533 27.6922 25.4586 27.7944 25.5339C27.9246 25.6376 28.0193 25.7792 28.0652 25.9392C28.1512 26.2673 28.2552 26.5883 28.3682 26.9057C28.4812 27.223 28.5852 27.5458 28.7125 27.8632C28.7901 28.0555 28.8862 28.2398 28.9994 28.4137C29.055 28.5015 29.1123 28.593 29.1787 28.6719L29.2235 28.7364L29.2647 28.7866C29.2922 28.8194 29.3215 28.8506 29.3526 28.8799C29.6198 29.1435 30.0698 29.1919 30.2796 28.8942C30.315 28.8446 30.3457 28.7918 30.3711 28.7364C30.4013 28.6787 30.4271 28.6188 30.4482 28.5571C30.4739 28.4942 30.4949 28.4295 30.511 28.3635C30.5297 28.2974 30.5446 28.2304 30.5558 28.1626C30.6309 27.7379 30.6555 27.3057 30.6293 26.8752C30.615 26.5363 30.5486 26.2064 30.5199 25.8639C30.5199 25.7886 30.5038 25.715 30.5002 25.6379C30.5002 25.351 30.5558 25.256 30.6921 25.2058C30.7219 25.1913 30.7531 25.1799 30.7853 25.1717C30.8893 25.1538 30.9646 25.2704 31.0094 25.464C31.137 26.0815 31.1972 26.7109 31.1887 27.3414C31.1939 27.8642 31.1021 28.3834 30.918 28.8727L30.8911 28.8709Z" fill="#231F20"/>
<path d="M26.9813 27.213C26.8393 26.5003 26.7887 25.7724 26.8307 25.0469L26.8576 24.6471C26.8701 24.5144 26.8935 24.3799 26.915 24.249C26.9352 24.1271 26.9658 24.0071 27.0064 23.8904C27.0484 23.765 27.1044 23.6447 27.1732 23.5317C27.3062 23.3145 27.4761 23.1221 27.6752 22.9633C28.0565 22.6698 28.4914 22.4536 28.9555 22.3268C29.1688 22.2765 29.3873 22.2512 29.6064 22.2515C29.813 22.2463 30.0196 22.2547 30.225 22.2766C30.4913 22.3008 30.7544 22.3519 31.0104 22.429C31.0766 22.4473 31.1408 22.4719 31.2023 22.5025C31.2646 22.5298 31.3246 22.5622 31.3816 22.5993C31.5101 22.6714 31.6214 22.7705 31.7079 22.8898C31.8066 23.0691 31.7079 23.053 31.5681 23.0082C31.4282 22.9633 31.2095 22.9633 30.9459 22.9131C30.4739 22.8174 29.9929 22.7729 29.5114 22.7804C29.3992 22.7824 29.2872 22.7914 29.1761 22.8073L29.1115 22.8199L29.0255 22.8468C28.9681 22.8629 28.9107 22.8826 28.8461 22.9024C28.6182 22.9778 28.3989 23.077 28.1917 23.1982C27.9463 23.3376 27.7426 23.54 27.6017 23.7846C27.5344 23.9042 27.4843 24.0328 27.4529 24.1665C27.4224 24.3064 27.4045 24.4677 27.3758 24.6166C27.2877 25.2981 27.2955 25.9886 27.3991 26.6679C27.4615 27.0893 27.5538 27.5058 27.6752 27.9141C27.8543 28.5358 28.1103 29.1328 28.4373 29.6911C28.701 30.1037 29.0121 30.4841 29.3643 30.8243C29.4379 30.9014 29.5239 30.9606 29.601 31.0341C29.7072 31.126 29.8084 31.2236 29.9041 31.3264C29.9538 31.3861 29.9827 31.4603 29.9866 31.5379C29.9891 31.5708 29.9891 31.6037 29.9866 31.6366C29.974 31.7316 29.7947 31.6939 29.5078 31.5397C28.7045 31.0269 28.0733 30.1967 27.6573 29.3073C27.3398 28.6437 27.1038 27.9441 26.9544 27.2237L26.9813 27.213Z" fill="#231F20"/>
<path d="M25.022 23.8217C25.117 23.8504 25.1332 23.958 25.1045 24.0781C25.0955 24.1175 25.0184 24.1911 24.9897 24.1893C24.961 24.1875 24.8839 24.1785 24.8391 24.1677C24.823 24.1677 24.7261 24.1122 24.6096 24.0781C24.5088 24.0435 24.4039 24.0224 24.2976 24.0153C24.1667 24.0153 24.0448 23.9884 23.9157 23.9777C23.6451 23.9569 23.3729 23.9781 23.1088 24.0404C23.0497 24.0526 22.9897 24.0598 22.9294 24.062C22.7094 24.0802 22.495 24.1411 22.2983 24.2413C22.2611 24.2515 22.228 24.2728 22.2032 24.3022C21.9944 24.4297 21.7762 24.5412 21.5505 24.6357C21.3625 24.6942 21.179 24.7667 21.0019 24.8527C20.9768 24.8653 20.9552 24.8886 20.9212 24.8832C20.8885 24.88 20.8556 24.884 20.8246 24.8948C20.7936 24.9057 20.7654 24.9231 20.7419 24.946C20.6719 24.9908 20.602 25.0356 20.5285 25.0786C20.4851 25.0959 20.44 25.1085 20.394 25.1163C20.3528 25.1271 20.3061 25.0589 20.3097 25.0428C20.3187 24.9962 20.2667 24.9926 20.2398 24.9729C20.2301 24.966 20.2211 24.9582 20.2129 24.9495C20.2455 24.8547 20.2921 24.7653 20.351 24.6842C20.4077 24.5871 20.4738 24.4959 20.5482 24.4116L20.6504 24.3273C20.7096 24.2771 20.7903 24.2144 20.8745 24.148C21.0413 24.0207 21.2332 23.9024 21.2619 23.8737C21.3022 23.849 21.3465 23.8314 21.3928 23.8217C21.4035 23.8217 21.5398 23.7284 21.6868 23.6549C21.8339 23.5814 21.9809 23.5079 21.9934 23.5043C22.115 23.4477 22.2468 23.4166 22.3808 23.4129C22.4074 23.4138 22.4338 23.4082 22.4579 23.3967C22.6772 23.3311 22.9035 23.2914 23.1321 23.2784C23.2504 23.2784 23.367 23.2515 23.4907 23.2461C23.5125 23.2479 23.534 23.2515 23.5552 23.2569C23.5819 23.2622 23.6088 23.2658 23.6359 23.2676C23.9251 23.2683 24.2124 23.3137 24.4876 23.4021C24.6281 23.4724 24.7619 23.5552 24.8875 23.6495C24.9198 23.6621 24.9879 23.8091 25.022 23.8217Z" fill="#231F20"/>
<path d="M28.9185 33.2949C28.707 33.3326 27.5701 33.8329 26.4082 33.6033C26.4082 33.6033 27.1398 36.2213 27.909 36.1442C27.9072 36.1442 29.1301 36.3755 28.9185 33.2949Z" fill="#231F20"/>
<path d="M45.9847 14.2609C46.4331 13.8186 46.9341 13.4332 47.4766 13.1133C47.5122 13.0929 47.5424 13.0643 47.5646 13.0298C47.5867 12.9953 47.6002 12.9559 47.6039 12.9151C47.6076 12.8742 47.6014 12.8331 47.5858 12.7952C47.5702 12.7573 47.5456 12.7237 47.5142 12.6973C47.3529 12.57 47.1072 12.6417 46.9548 12.7403C46.3627 13.0981 45.8166 13.5268 45.3284 14.017C45.3009 14.0468 45.2813 14.0832 45.2716 14.1226C45.2619 14.1621 45.2624 14.2033 45.2729 14.2425C45.2835 14.2818 45.3038 14.3177 45.332 14.3469C45.3603 14.3761 45.3954 14.3977 45.4342 14.4097C45.5306 14.4407 45.6338 14.4432 45.7315 14.4168C45.8292 14.3904 45.9172 14.3362 45.9847 14.2609Z" fill="#231F20"/>
<path d="M8.24858 14.8546C7.86719 14.3824 7.37419 14.0126 6.8141 13.7787C6.72251 13.7482 6.62517 13.7389 6.52946 13.7516C6.43376 13.7644 6.34223 13.7988 6.26182 13.8522C6.16679 13.9132 6.01617 14.0818 6.19369 14.1553C6.71527 14.3724 7.17398 14.7171 7.52775 15.1576C7.69631 15.3638 8.44403 15.0913 8.24499 14.8546H8.24858Z" fill="#231F20"/>
</svg>
