<svg width="168" height="50" viewBox="0 0 168 50" fill="none" xmlns="http://www.w3.org/2000/svg">
<g id="&#208;&#187;&#208;&#190;&#208;&#179;&#208;&#190;" clip-path="url(#clip0_509_2091)">
<g id="&#208;&#161;&#208;&#187;&#208;&#190;&#208;&#185; 2">
<g id="&#208;&#161;&#208;&#187;&#208;&#190;&#208;&#185; 1">
<g id="Group">
<path id="Vector" d="M38.9145 34.2341C40.0112 34.2236 41.0957 34.0013 42.1086 33.5793C43.0274 33.2364 43.8404 32.6574 44.4666 31.9003C44.7597 31.7181 45.0092 31.4731 45.1971 31.1828C45.385 30.8926 45.5067 30.5643 45.5536 30.2213V27.1656C44.7167 26.8534 43.8552 26.6119 42.9782 26.4436C42.0974 26.2653 41.2011 26.1753 40.3025 26.175C38.812 26.1118 37.3389 26.5168 36.0883 27.3335C35.6183 27.6405 35.2268 28.0542 34.9452 28.5411C34.6637 29.028 34.5001 29.5744 34.4675 30.1365C34.435 30.6985 34.5344 31.2604 34.7579 31.7767C34.9813 32.2931 35.3225 32.7495 35.7539 33.1092C36.6288 33.8702 37.7575 34.2719 38.9145 34.2341ZM37.0415 39.1031C35.8149 39.1242 34.5952 38.9135 33.4461 38.4819C32.4048 38.1109 31.445 37.5408 30.6199 36.8029C29.8371 36.0661 29.2063 35.1818 28.7636 34.2005C28.3051 33.1418 28.0771 31.9969 28.0947 30.8425C28.1001 29.674 28.3809 28.5233 28.9141 27.4846C29.4639 26.4399 30.2413 25.5331 31.1885 24.8318C32.2452 24.0687 33.4287 23.5002 34.6836 23.1528C36.1324 22.7219 37.6377 22.5125 39.1487 22.5316C40.2697 22.5274 41.389 22.6229 42.4933 22.817C43.5034 22.9902 44.4907 23.2774 45.4365 23.6733V22.179C45.4846 21.4505 45.3799 20.7199 45.1293 20.0345C44.8787 19.3491 44.4877 18.7241 43.9816 18.1998C42.8073 17.2076 41.2999 16.7031 39.7674 16.7895C38.3799 16.792 37.004 17.0421 35.7037 17.5282C34.2639 18.0902 32.8989 18.829 31.64 19.7277L29.5998 15.4295C32.781 13.2418 36.5469 12.0713 40.4029 12.0716C43.5442 11.8745 46.6455 12.8625 49.0989 14.8419C50.1661 15.8616 50.9966 17.1048 51.5313 18.4832C52.066 19.8615 52.2918 21.3412 52.1926 22.817V30.9265C52.147 31.4541 52.2827 31.9815 52.5773 32.4208C52.7297 32.5873 52.9163 32.7185 53.1242 32.8055C53.3321 32.8925 53.5563 32.9331 53.7813 32.9245V38.6162C52.8185 38.8201 51.8386 38.9325 50.8548 38.952C49.8218 39.0256 48.7963 38.7281 47.9617 38.1125C47.2865 37.5441 46.8357 36.7522 46.6908 35.8795L46.557 34.4356C45.4444 35.911 44.0004 37.1018 42.3428 37.911C40.6871 38.7026 38.8753 39.11 37.0415 39.1031Z" fill="#1C37B0"/>
<path id="Vector_2" d="M58.2963 43.6525C58.8446 43.814 59.4034 43.9375 59.9686 44.0219C60.4165 44.0957 60.8693 44.135 61.3231 44.1394C61.7304 44.1394 62.1337 44.0596 62.5105 43.9043C62.9039 43.6963 63.2422 43.397 63.4972 43.0313C63.8518 42.5052 64.1489 41.9423 64.3835 41.3523C64.6845 40.6135 65.0022 39.6733 65.3367 38.6156L55.0186 12.541H61.875L68.8987 32.8399L75.1364 12.541H81.3908L70.4874 43.7868C69.8816 45.5666 68.7571 47.1225 67.2598 48.2529C65.6147 49.4292 63.6253 50.0201 61.6074 49.9319C61.0478 49.9367 60.4886 49.8974 59.9351 49.8144C59.368 49.7166 58.809 49.5763 58.2628 49.3946L58.2963 43.6525Z" fill="#1C37B0"/>
<path id="Vector_3" d="M108.098 9.30176H96.8429V38.6167H90.0533V9.30176H78.8154V3.29102H108.098V9.30176Z" fill="#1C37B0"/>
<path id="Vector_4" d="M115.389 34.2341C116.463 34.2151 117.524 33.993 118.516 33.5793C119.435 33.2364 120.248 32.6574 120.874 31.9003C121.165 31.7155 121.413 31.4698 121.6 31.18C121.788 30.8903 121.911 30.5632 121.961 30.2213V27.1656C121.124 26.8534 120.263 26.6119 119.386 26.4436C118.505 26.2662 117.609 26.1762 116.71 26.175C115.219 26.1096 113.746 26.5147 112.496 27.3335C112.026 27.6405 111.635 28.0542 111.353 28.5411C111.071 29.028 110.908 29.5744 110.875 30.1365C110.843 30.6985 110.942 31.2604 111.166 31.7767C111.389 32.2931 111.73 32.7495 112.162 33.1092C113.037 33.8702 114.165 34.2719 115.322 34.2341M113.449 39.1031C112.245 39.1159 111.049 38.9053 109.921 38.4819C108.879 38.1109 107.92 37.5408 107.094 36.8029C106.312 36.0661 105.681 35.1818 105.238 34.2005C104.78 33.1418 104.552 31.9969 104.569 30.8425C104.575 29.674 104.855 28.5233 105.389 27.4846C105.939 26.4399 106.716 25.5331 107.663 24.8318C108.72 24.0687 109.903 23.5002 111.158 23.1528C112.607 22.7219 114.112 22.5125 115.623 22.5316C116.744 22.5274 117.864 22.6229 118.968 22.817C119.978 22.9902 120.965 23.2774 121.911 23.6733V22.179C121.959 21.4505 121.855 20.7199 121.604 20.0345C121.353 19.3491 120.962 18.7241 120.456 18.1998C119.265 17.1911 117.73 16.6855 116.175 16.7895C114.769 16.7625 113.37 16.99 112.045 17.4611C110.605 18.023 109.24 18.7618 107.981 19.6605L106.007 15.4295C109.189 13.2418 112.955 12.0713 116.811 12.0716C119.952 11.8745 123.053 12.8625 125.507 14.8419C126.576 15.8635 127.408 17.1094 127.943 18.4909C128.477 19.8723 128.702 21.3552 128.6 22.8338V30.9433C128.559 31.4682 128.688 31.9925 128.968 32.4376C129.127 32.6003 129.317 32.7289 129.527 32.8155C129.737 32.9021 129.962 32.9449 130.189 32.9413V38.6162C129.226 38.8201 128.246 38.9325 127.263 38.952C126.229 39.0256 125.204 38.7281 124.369 38.1125C123.688 37.5491 123.236 36.7547 123.098 35.8795L122.948 34.4356C121.839 35.9141 120.394 37.1056 118.734 37.911C117.083 38.7001 115.277 39.1075 113.449 39.1031Z" fill="#1C37B0"/>
<path id="Vector_5" d="M138.919 12.541L144.521 20.7009L144.905 21.5907L145.407 20.7009L150.959 12.541H157.799L148.518 25.6203L157.933 38.6156H151.11L145.357 30.5061L144.905 29.6498L144.521 30.5061L138.818 38.6156H131.979L141.343 25.6203L132.129 12.541H138.919Z" fill="#1C37B0"/>
<path id="Vector_6" d="M161.361 38.6171V12.5426H168.051V38.6171H161.361ZM161.361 8.91596V2.30078H168.051V8.91596H161.361Z" fill="#1C37B0"/>
<path id="Vector_7" d="M0 39.0195H6.85646V31.2962H0V39.0195ZM17.9271 15.9168C17.5584 16.4039 17.0832 16.7996 16.5381 17.0732C15.993 17.3468 15.3926 17.4911 14.7832 17.495H6.85646V6.06115H14.4487C15.059 6.05702 15.6632 6.18292 16.2214 6.43052C16.8067 6.68613 17.3312 7.06387 17.7599 7.53865C18.1856 8.08418 18.5293 8.68946 18.78 9.33516C19.041 10.1141 19.171 10.9311 19.1646 11.7529C19.2515 13.2436 18.8135 14.7176 17.9271 15.9168ZM25.2686 7.52186C24.7201 6.1394 23.9395 4.86164 22.9608 3.74416C21.9673 2.61805 20.7626 1.6995 19.4155 1.041C18.0094 0.352076 16.4648 -0.00403533 14.9003 3.44948e-05H0V27.401H6.85646V23.5057H15.218C16.7616 23.5167 18.2878 23.1781 19.6831 22.5151C21.0039 21.8752 22.1815 20.9727 23.1447 19.8624C25.0882 17.6149 26.1416 14.729 26.1047 11.7529C26.1114 10.2951 25.8271 8.85073 25.2686 7.50507V7.52186Z" fill="#1C37B0"/>
<path id="Vector_8" d="M10.7029 27.418H6.83984V31.2964H10.7029V27.418Z" fill="#1C37B0"/>
<path id="Vector_9" d="M14.5662 31.2793H10.7031V35.1577H14.5662V31.2793Z" fill="#1C37B0"/>
<path id="Vector_10" d="M18.4119 27.418H14.5488V31.2964H18.4119V27.418Z" fill="#1C37B0"/>
<path id="Vector_11" d="M22.2751 31.2793H18.4121V35.1577H22.2751V31.2793Z" fill="#1C37B0"/>
<path id="Vector_12" d="M26.1218 27.418H22.2588V31.2964H26.1218V27.418Z" fill="#1C37B0"/>
</g>
</g>
</g>
</g>
<defs>
<clipPath id="clip0_509_2091">
<rect width="168" height="50" fill="white"/>
</clipPath>
</defs>
</svg>
