<svg width="124" height="37" viewBox="0 0 124 37" fill="none" xmlns="http://www.w3.org/2000/svg">
<g id="&#208;&#187;&#208;&#190;&#208;&#179;&#208;&#190;" clip-path="url(#clip0_327_2263)">
<g id="&#208;&#161;&#208;&#187;&#208;&#190;&#208;&#185; 2">
<g id="&#208;&#161;&#208;&#187;&#208;&#190;&#208;&#185; 1">
<g id="Group">
<path id="Vector" d="M28.7231 25.3336C29.5326 25.3258 30.333 25.1613 31.0807 24.849C31.7588 24.5953 32.3589 24.1668 32.821 23.6066C33.0374 23.4717 33.2215 23.2904 33.3602 23.0757C33.4989 22.8609 33.5888 22.6179 33.6234 22.3641V20.1029C33.0056 19.8718 32.3698 19.6931 31.7225 19.5686C31.0724 19.4367 30.4108 19.3701 29.7476 19.3698C28.6474 19.3231 27.5601 19.6228 26.6371 20.2271C26.2902 20.4544 26.0012 20.7604 25.7934 21.1207C25.5856 21.481 25.4648 21.8854 25.4408 22.3013C25.4168 22.7172 25.4902 23.133 25.6551 23.5151C25.82 23.8972 26.0718 24.235 26.3902 24.5011C27.036 25.0643 27.8691 25.3615 28.7231 25.3336ZM27.3407 28.9367C26.4352 28.9523 25.535 28.7963 24.6869 28.477C23.9183 28.2024 23.2099 27.7805 22.6009 27.2345C22.0231 26.6893 21.5575 26.0349 21.2308 25.3087C20.8923 24.5252 20.724 23.6781 20.737 22.8238C20.741 21.9591 20.9483 21.1076 21.3419 20.3389C21.7477 19.5659 22.3215 18.8949 23.0205 18.3759C23.8005 17.8112 24.674 17.3905 25.6003 17.1334C26.6697 16.8145 27.7807 16.6596 28.8959 16.6737C29.7234 16.6706 30.5495 16.7413 31.3645 16.8849C32.1101 17.0131 32.8389 17.2256 33.537 17.5186V16.4128C33.5724 15.8737 33.4952 15.3331 33.3102 14.8259C33.1252 14.3187 32.8367 13.8562 32.4631 13.4682C31.5963 12.7339 30.4837 12.3606 29.3526 12.4246C28.3285 12.4264 27.3129 12.6115 26.3532 12.9712C25.2905 13.3871 24.283 13.9338 23.3538 14.5989L21.8479 11.4182C24.196 9.7993 26.9756 8.93308 29.8216 8.9333C32.1402 8.7875 34.4293 9.51862 36.2401 10.9833C37.0278 11.738 37.6408 12.6579 38.0355 13.6779C38.4301 14.6979 38.5968 15.7928 38.5236 16.8849V22.886C38.4899 23.2764 38.5901 23.6666 38.8075 23.9917C38.92 24.1149 39.0577 24.2121 39.2112 24.2764C39.3646 24.3408 39.5301 24.3708 39.6962 24.3645V28.5764C38.9855 28.7272 38.2623 28.8104 37.5362 28.8248C36.7737 28.8793 36.0168 28.6591 35.4008 28.2036C34.9024 27.783 34.5697 27.1969 34.4627 26.5512L34.3639 25.4827C33.5427 26.5745 32.477 27.4557 31.2535 28.0545C30.0314 28.6403 28.6941 28.9417 27.3407 28.9367Z" fill="#1C37B0"/>
<path id="Vector_2" d="M43.0286 32.3037C43.4334 32.4233 43.8458 32.5146 44.263 32.5771C44.5935 32.6318 44.9278 32.6608 45.2628 32.6641C45.5634 32.6641 45.8611 32.605 46.1391 32.4901C46.4295 32.3362 46.6792 32.1147 46.8674 31.844C47.1291 31.4547 47.3485 31.0382 47.5216 30.6016C47.7438 30.0549 47.9783 29.3592 48.2251 28.5764L40.6094 9.28125H45.6701L50.8542 24.3024L55.4583 9.28125H60.0746L52.0269 32.4031C51.5797 33.7202 50.7497 34.8716 49.6446 35.708C48.4303 36.5785 46.962 37.0158 45.4726 36.9505C45.0595 36.9541 44.6468 36.925 44.2383 36.8635C43.8197 36.7912 43.4071 36.6874 43.004 36.5529L43.0286 32.3037Z" fill="#1C37B0"/>
<path id="Vector_3" d="M79.7868 6.8835H71.4798V28.5766H66.4685V6.8835H58.1738V2.43555H79.7868V6.8835Z" fill="#1C37B0"/>
<path id="Vector_4" d="M85.1684 25.3336C85.9612 25.3195 86.7443 25.1551 87.4766 24.849C88.1547 24.5953 88.7548 24.1668 89.217 23.6066C89.4317 23.4698 89.6145 23.288 89.753 23.0736C89.8914 22.8591 89.9823 22.6171 90.0193 22.3641V20.1029C89.4016 19.8718 88.7657 19.6931 88.1184 19.5686C87.4682 19.4373 86.8067 19.3707 86.1435 19.3698C85.0432 19.3214 83.9554 19.6212 83.033 20.2271C82.6861 20.4544 82.3971 20.7605 82.1893 21.1207C81.9815 21.481 81.8607 21.8854 81.8367 22.3013C81.8127 22.7172 81.8861 23.133 82.051 23.5151C82.2159 23.8972 82.4678 24.235 82.7862 24.5011C83.432 25.0643 84.265 25.3615 85.119 25.3336M83.7366 28.9367C82.8477 28.9461 81.9648 28.7902 81.1322 28.477C80.3636 28.2025 79.6552 27.7805 79.0462 27.2345C78.4684 26.6893 78.0028 26.0349 77.6761 25.3087C77.3376 24.5252 77.1693 23.6781 77.1823 22.8238C77.1863 21.9591 77.3936 21.1076 77.7872 20.3389C78.193 19.5659 78.7668 18.8949 79.4658 18.3759C80.2458 17.8112 81.1193 17.3905 82.0456 17.1334C83.115 16.8145 84.226 16.6596 85.3412 16.6737C86.1687 16.6706 86.9948 16.7413 87.8099 16.8849C88.5554 17.0131 89.2842 17.2257 89.9823 17.5186V16.4128C90.0177 15.8737 89.9405 15.3331 89.7555 14.8259C89.5706 14.3187 89.282 13.8562 88.9084 13.4682C88.029 12.7218 86.8963 12.3476 85.7485 12.4246C84.7109 12.4046 83.6781 12.5729 82.6998 12.9216C81.6371 13.3374 80.6296 13.8841 79.7004 14.5492L78.2439 11.4182C80.5919 9.7993 83.3715 8.93308 86.2176 8.9333C88.5361 8.7875 90.8252 9.51862 92.6361 10.9833C93.4255 11.7393 94.0394 12.6613 94.4341 13.6836C94.8288 14.7059 94.9946 15.8032 94.9196 16.8974V22.8984C94.8889 23.2868 94.9842 23.6748 95.1911 24.0042C95.3083 24.1246 95.4487 24.2197 95.6036 24.2838C95.7585 24.3479 95.9247 24.3795 96.0922 24.3769V28.5764C95.3815 28.7272 94.6583 28.8104 93.9321 28.8248C93.1696 28.8793 92.4128 28.6591 91.7967 28.2036C91.294 27.7867 90.9603 27.1988 90.8586 26.5512L90.7475 25.4827C89.9287 26.5768 88.8624 27.4585 87.6371 28.0545C86.4188 28.6384 85.0859 28.9399 83.7366 28.9367Z" fill="#1C37B0"/>
<path id="Vector_5" d="M102.535 9.28125L106.67 15.3195L106.953 15.978L107.324 15.3195L111.422 9.28125H116.47L109.62 18.9599L116.569 28.5764H111.533L107.287 22.5754L106.953 21.9418L106.67 22.5754L102.46 28.5764H97.4121L104.324 18.9599L97.5232 9.28125H102.535Z" fill="#1C37B0"/>
<path id="Vector_6" d="M119.1 28.5762V9.28106H124.037V28.5762H119.1ZM119.1 6.59738V1.70215H124.037V6.59738H119.1Z" fill="#1C37B0"/>
<path id="Vector_7" d="M0 28.8744H5.06072V23.1592H0V28.8744ZM13.2319 11.7784C12.9598 12.1389 12.609 12.4317 12.2067 12.6342C11.8044 12.8367 11.3612 12.9434 10.9114 12.9463H5.06072V4.48525H10.6645C11.115 4.4822 11.5609 4.57536 11.9729 4.75859C12.405 4.94773 12.7921 5.22726 13.1085 5.5786C13.4227 5.98229 13.6764 6.4302 13.8614 6.90802C14.054 7.4844 14.15 8.08904 14.1453 8.69714C14.2095 9.80029 13.8861 10.891 13.2319 11.7784ZM18.6506 5.56618C18.2458 4.54316 17.6697 3.59761 16.9472 2.77068C16.214 1.93735 15.3248 1.25763 14.3305 0.770341C13.2927 0.260536 12.1526 -0.00298614 10.9978 2.55262e-05H0V20.2767H5.06072V17.3942H11.2323C12.3717 17.4024 13.4981 17.1518 14.528 16.6612C15.5028 16.1876 16.3721 15.5198 17.083 14.6981C18.5175 13.035 19.295 10.8994 19.2678 8.69714C19.2727 7.61837 19.0628 6.54954 18.6506 5.55375V5.56618Z" fill="#1C37B0"/>
<path id="Vector_8" d="M7.90011 20.2891H5.04883V23.1591H7.90011V20.2891Z" fill="#1C37B0"/>
<path id="Vector_9" d="M10.7517 23.1465H7.90039V26.0165H10.7517V23.1465Z" fill="#1C37B0"/>
<path id="Vector_10" d="M13.5896 20.2891H10.7383V23.1591H13.5896V20.2891Z" fill="#1C37B0"/>
<path id="Vector_11" d="M16.4411 23.1465H13.5898V26.0165H16.4411V23.1465Z" fill="#1C37B0"/>
<path id="Vector_12" d="M19.281 20.2891H16.4297V23.1591H19.281V20.2891Z" fill="#1C37B0"/>
</g>
</g>
</g>
</g>
<defs>
<clipPath id="clip0_327_2263">
<rect width="124" height="37" fill="white"/>
</clipPath>
</defs>
</svg>
