<svg width="125" height="125" viewBox="0 0 125 125" fill="none" xmlns="http://www.w3.org/2000/svg">
<g id="Hicon / Bold / Location">
<g id="Location">
<path id="Vector" fill-rule="evenodd" clip-rule="evenodd" d="M76.9839 102.607C89.0139 87.2668 104.167 64.9794 104.167 50.0459C104.167 25.2832 85.5125 5.20898 62.5006 5.20898C39.4888 5.20898 20.834 25.2832 20.834 50.0459C20.834 64.9794 35.9874 87.2668 48.0174 102.607C54.2936 110.611 57.4317 114.612 62.5006 114.612C67.5696 114.612 70.7077 110.611 76.9839 102.607ZM62.5006 67.709C53.8712 67.709 46.8756 60.7134 46.8756 52.084C46.8756 43.4545 53.8712 36.459 62.5006 36.459C71.1301 36.459 78.1256 43.4545 78.1256 52.084C78.1256 60.7134 71.1301 67.709 62.5006 67.709Z" fill="#6C84F2"/>
</g>
</g>
</svg>
